<svg xmlns="http://www.w3.org/2000/svg" width="332.419" height="146.941" viewBox="0 0 332.419 146.941">
  <g id="Group_409" data-name="Group 409" transform="translate(572.419 -577.031)">
    <g id="Group_407" data-name="Group 407">
      <g id="Group_406" data-name="Group 406">
        <path id="Path_277" data-name="Path 277" d="M-558.635,623.18h21.824v76.527c0,14.358-9.046,24.265-23.547,24.265-7.61,0-11.056-1.579-12.061-2.01V703.871a22.617,22.617,0,0,0,6.462.861c5.025,0,7.322-2.871,7.322-7.322Zm10.768-34.6a12.747,12.747,0,0,1,12.922,12.778,12.838,12.838,0,0,1-12.922,12.778A12.778,12.778,0,0,1-560.5,601.356,12.685,12.685,0,0,1-547.867,588.578Z" fill="#bdd631"/>
        <path id="Path_278" data-name="Path 278" d="M-457.7,658.787c0,22.111-16.512,37.905-37.9,37.905-21.25,0-37.9-15.794-37.9-37.905s16.655-37.761,37.9-37.761C-474.212,621.026-457.7,636.676-457.7,658.787Zm-21.824,0c0-12.06-7.754-17.66-16.081-17.66-8.184,0-16.081,5.6-16.081,17.66,0,11.918,7.9,17.8,16.081,17.8C-487.278,676.591-479.524,670.848-479.524,658.787Z" fill="#bdd631"/>
        <path id="Path_279" data-name="Path 279" d="M-454.4,694.538V623.18h20.819v8.184c3.589-6.317,12.778-10.338,20.532-10.338,10.194,0,17.516,4.164,21.106,11.2,5.6-8.04,12.491-11.2,22.111-11.2,13.5,0,26.418,7.9,26.418,27.28v46.232H-364.52v-41.35c0-6.749-3.589-12.061-11.342-12.061s-11.918,5.887-11.918,12.2v41.207h-21.536v-41.35c0-6.749-3.59-12.061-11.487-12.061-7.609,0-11.773,5.887-11.773,12.348v41.063Z" fill="#bdd631"/>
        <path id="Path_280" data-name="Path 280" d="M-265.168,658.787c0,22.111-16.511,37.905-37.9,37.905-21.25,0-37.9-15.794-37.9-37.905s16.655-37.761,37.9-37.761C-281.679,621.026-265.168,636.676-265.168,658.787Zm-21.824,0c0-12.06-7.753-17.66-16.08-17.66-8.184,0-16.081,5.6-16.081,17.66,0,11.918,7.9,17.8,16.081,17.8C-294.745,676.591-286.992,670.848-286.992,658.787Z" fill="#bdd631"/>
      </g>
    </g>
    <text id="shop_._wear_." data-name="shop . wear ." transform="translate(-486.992 605.955)" fill="#231f20" font-size="27.034" font-family="Prata-Regular, Prata"><tspan x="0" y="0">shop . wear .</tspan></text>
    <g id="Group_408" data-name="Group 408">
      <path id="Path_281" data-name="Path 281" d="M-274.418,599.13a4.631,4.631,0,0,1-.668.694,39.432,39.432,0,0,1-8.644,4.677,10.594,10.594,0,0,1-3.944.76,3.58,3.58,0,0,1-3.652-3.17,10.358,10.358,0,0,1-.033-1.956v-.223c-.65-.086-1.3-.141-1.946-.263a5.763,5.763,0,0,1-3.448-1.747,11.321,11.321,0,0,1-.7-1.006c-.286.505-.574,1.017-.865,1.527a65.609,65.609,0,0,1-4.829,7.554,11.03,11.03,0,0,1-1.367,1.459,1.293,1.293,0,0,1-1.651.286,1.66,1.66,0,0,1-.72-1.339,13.613,13.613,0,0,1,.092-3.64c.117-.878.283-1.75.426-2.625a1.55,1.55,0,0,0,0-.2c-.637.256-1.25.507-1.865.751a88.749,88.749,0,0,1-10.664,3.679,33.232,33.232,0,0,1-3.676.667,2.765,2.765,0,0,1-3.306-2.536c-.015-.108-.04-.215-.073-.383-.36.512-.694.99-1.032,1.465a86,86,0,0,1-7.124,8.911,19.763,19.763,0,0,1-4.105,3.579,8.032,8.032,0,0,1-1.688.783,2.435,2.435,0,0,1-3.267-1.865,15.554,15.554,0,0,1-.282-1.877v-.922c.149-1.327.26-2.66.453-3.98a63.362,63.362,0,0,1,1.722-7.747,88.844,88.844,0,0,1,4.946-13.826,39.889,39.889,0,0,1,4.8-7.75,6.961,6.961,0,0,1,1.565-1.44,1.687,1.687,0,0,1,2.787,1.294,7.368,7.368,0,0,1-.367,3.206,31.254,31.254,0,0,1-3.149,6.912,49.126,49.126,0,0,1-5.612,7.936c-.7.794-1.509,1.5-2.262,2.246a.943.943,0,0,0-.248.365,85.563,85.563,0,0,0-2.558,9.872,38.734,38.734,0,0,0-.467,3.846,5.784,5.784,0,0,0,.175,1.723c.213.923.817,1.2,1.687.818a8.372,8.372,0,0,0,2.308-1.668,45.26,45.26,0,0,0,5.24-6.027c2.233-2.973,4.328-6.04,6.325-9.176a4.875,4.875,0,0,1,.767-.743.989.989,0,0,0,.2-.27c.266-.563.487-1.15.789-1.693a1.6,1.6,0,0,1,2.658-.134,1.29,1.29,0,0,1,.09,1.424,15.721,15.721,0,0,0-1.589,4.12,4.135,4.135,0,0,0-.027,1.237.628.628,0,0,0,.775.617,26.66,26.66,0,0,0,3.079-.628,113.827,113.827,0,0,0,11.5-4.254c.474-.2.932-.43,1.4-.632a5.344,5.344,0,0,1,.6-.182c.243-.855.489-1.727.737-2.6.039-.137.087-.271.131-.406a1.431,1.431,0,0,1,2.046-.968,3.331,3.331,0,0,1,.927.6,1.356,1.356,0,0,1,.407,1.553c-.717,2.444-1.359,4.911-2.029,7.369a.23.23,0,0,0,.021.183c.1-.161.2-.317.289-.482q2.793-5.193,5.579-10.389a2.051,2.051,0,0,0,.212-.514.844.844,0,0,1,.98-.676,4.207,4.207,0,0,1,1.127.181.877.877,0,0,1,.528,1.328,14.752,14.752,0,0,0-.8,2.038,2.158,2.158,0,0,0,1.886,3.021,10.446,10.446,0,0,0,3.01.113.585.585,0,0,0,.366-.263,6.966,6.966,0,0,1,2.323-2.423,3.608,3.608,0,0,1,1.334-.5,1.707,1.707,0,0,1,1.919,2.06,3.717,3.717,0,0,1-1.4,2.45,9.978,9.978,0,0,1-2.9,1.718.461.461,0,0,0-.35.556c.036.271.035.547.077.816a1.635,1.635,0,0,0,1.938,1.51,10.839,10.839,0,0,0,3.889-1.224,42.9,42.9,0,0,0,7.265-4.471,1.147,1.147,0,0,1,1.927.515ZM-336.942,594l.058.026a1.1,1.1,0,0,0,.082-.1,88.5,88.5,0,0,0,5.987-10.078c.641-1.276,1.143-2.623,1.682-3.948a4.381,4.381,0,0,0,.163-.906l-.13-.063c-.307.323-.63.634-.919.973a20.756,20.756,0,0,0-3.065,4.733c-1.04,2.253-1.962,4.559-2.916,6.851C-336.343,592.318-336.629,593.166-336.942,594Z"/>
      <path id="Path_282" data-name="Path 282" d="M-322.7,591.859a2.006,2.006,0,0,1,.791-1.654,1.2,1.2,0,0,1,1.994.583,2.123,2.123,0,0,1-.862,2.327,1.234,1.234,0,0,1-1.922-.994C-322.71,592.034-322.7,591.946-322.7,591.859Z"/>
    </g>
  </g>
</svg>
